# xmcd
#
# Track frame offsets:
#	150
#	15470
#	31885
#	44632
#	61000
#	75028
#	89034
#	104310
#	118338
#	132471
#	150195
#	165143
#
# Disc length: 2392 seconds
#
# Revision: 1
# Processed by: cddbd v1.4PL0 Copyright (c) Steve Scherf et al.
# Submitted via: audiograbber 1.82.02
#
DISCID=8409560c
DTITLE=Jim Hendricks - Iron Horse - Great American Train Songs
DYEAR=2003
DGENRE=Bluegrass
TTITLE0=John Henry
TTITLE1=Chattanooga Choo Choo
TTITLE2=Wreck Of The Old 97
TTITLE3=Engine, Engine # 9
TTITLE4=Orange Blossom Special
TTITLE5=Mountain Railway
TTITLE6=Casey Jones
TTITLE7=Wabash Cannonball
TTITLE8=My Rough and Rowdy Ways
TTITLE9=The City Of New Orleans
TTITLE10=This Train Is Bound For  Glory
TTITLE11=On The Atchinson, Topeka, and  The Santa Fe
EXTD=
EXTT0=
EXTT1=
EXTT2=
EXTT3=
EXTT4=
EXTT5=
EXTT6=
EXTT7=
EXTT8=
EXTT9=
EXTT10=
EXTT11=
PLAYORDER=
